<svg xmlns="http://www.w3.org/2000/svg" width="512" height="512" viewBox="0 0 512 512" version="1.1">
	<path fill-opacity="0.439" d="M 254.500 5.044 C 253.400 5.549, 248 7.888, 242.500 10.242 C 233.021 14.299, 232.386 14.761, 230.303 19.105 C 228.372 23.135, 226.842 24.435, 217.632 29.876 C 211.870 33.279, 204.673 38.507, 201.637 41.495 C 185.052 57.816, 167.822 95.782, 159.882 133.500 C 158.261 141.200, 156.457 149.283, 155.872 151.463 C 155.287 153.642, 153.703 160.392, 152.351 166.463 C 151 172.533, 148.842 182.225, 147.557 188 C 146.272 193.775, 144.241 203.205, 143.043 208.954 C 141.845 214.704, 140.663 219.736, 140.416 220.136 C 140.169 220.536, 140.738 222.480, 141.681 224.458 C 143.451 228.170, 143.143 234.774, 140.046 259.500 C 139.418 264.520, 139.565 268.763, 140.566 274.500 C 143.196 289.563, 142.583 296.940, 137.397 312.600 L 132.795 326.500 133.337 347.027 C 133.636 358.317, 134.353 368.667, 134.932 370.027 C 135.511 371.387, 138.960 376.761, 142.598 381.969 C 149.955 392.500, 149.730 391.202, 146.991 407.269 C 145.959 413.325, 146.031 414.347, 147.669 416.976 C 160.729 437.932, 160.904 438.294, 160.324 443.120 C 159.667 448.593, 159.149 448.150, 172.500 453.526 L 182.500 457.553 183.615 462.044 C 187.261 476.722, 202.530 492.832, 217 497.266 C 231.217 501.623, 234.635 502.102, 251.072 502.046 C 270.011 501.981, 285.556 499.530, 302.622 493.920 C 321.147 487.830, 325.645 485.801, 364.500 466.011 C 372.200 462.089, 384.528 456.184, 391.896 452.889 C 400.331 449.117, 406.072 445.917, 407.396 444.250 C 408.553 442.794, 411.525 438.815, 414 435.410 C 416.475 432.004, 422.966 423.446, 428.425 416.393 L 438.351 403.569 437.137 391.535 C 435.599 376.286, 435.353 372.865, 434.037 348.500 C 433.444 337.500, 432.308 320.625, 431.514 311 C 429.966 292.243, 429.629 287.722, 428.042 264.500 C 425.815 231.906, 420.198 194.733, 414.519 175 C 413.806 172.525, 412.652 168.025, 411.954 165 C 411.256 161.975, 410.017 157.925, 409.201 156 C 408.385 154.075, 407.372 151.150, 406.950 149.500 C 404.310 139.195, 391.192 112.460, 381.188 97 C 370.861 81.039, 368.844 78.258, 359.513 67.120 C 345.849 50.809, 320.376 24.424, 314.388 20.378 C 313.226 19.593, 309.176 18.680, 305.388 18.350 C 299.326 17.822, 298.073 17.343, 294.937 14.355 L 291.374 10.960 282.937 11.557 L 274.500 12.155 267.639 8.077 C 260.714 3.962, 258.150 3.370, 254.500 5.044 M 1.762 511.707 C 3.006 511.946, 4.806 511.937, 5.762 511.687 C 6.718 511.437, 5.700 511.241, 3.500 511.252 C 1.300 511.263, 0.518 511.468, 1.762 511.707 M 12.750 511.737 C 15.638 511.939, 20.363 511.939, 23.250 511.737 C 26.138 511.535, 23.775 511.370, 18 511.370 C 12.225 511.370, 9.863 511.535, 12.750 511.737 " stroke="none" fill="black" fill-rule="evenodd"/>
	<path fill-opacity="0.154" d="M 244.569 9.909 C 231.886 15.478, 231.611 15.666, 230.261 19.718 C 229.004 23.487, 227.951 24.393, 218.282 30.034 C 200.833 40.213, 193.953 48.076, 181.999 71.500 C 172.189 90.722, 164.968 111.474, 159.901 135 C 158.183 142.975, 156.152 152.200, 155.388 155.500 C 154.623 158.800, 153.542 163.730, 152.986 166.456 C 152.429 169.182, 150.677 176.832, 149.093 183.456 C 147.509 190.080, 144.990 201.234, 143.495 208.242 C 140.947 220.187, 140.872 221.223, 142.307 224.809 C 143.697 228.283, 143.662 230.357, 141.933 247.388 C 140.479 261.702, 140.257 267.722, 140.994 272.821 C 142.501 283.240, 142.245 300.337, 140.516 304.730 C 139.700 306.803, 137.698 312.866, 136.069 318.202 L 133.105 327.905 133.877 348.798 L 134.650 369.691 142.320 380.595 C 146.539 386.593, 149.988 392.400, 149.984 393.500 C 149.980 394.600, 149.312 397.975, 148.500 401 C 145.679 411.510, 146.216 413.978, 154 426.279 C 160.515 436.575, 161 437.729, 161 442.938 L 161 448.535 167.250 450.926 C 183.124 456.998, 183.957 457.542, 183.985 461.854 C 184.007 465.359, 190.625 477.300, 195.354 482.369 C 209.730 497.777, 230.305 503.465, 263 501.069 C 291.553 498.976, 310.423 492.644, 355.500 470.028 C 388.698 453.371, 396.666 449.624, 401.422 448.430 C 403.188 447.987, 406.770 444.132, 412.752 436.235 C 417.563 429.884, 424.517 420.821, 428.204 416.094 C 438.314 403.134, 438.504 402.695, 437.087 395.530 C 436.432 392.213, 435.480 382.525, 434.974 374 C 434.467 365.475, 433.610 351.975, 433.069 344 C 432.528 336.025, 431.581 321.850, 430.963 312.500 C 430.346 303.150, 429.397 291.450, 428.854 286.500 C 428.047 279.152, 427.304 269.663, 426.087 251.183 C 426.036 250.410, 425.277 250.081, 424.250 250.387 C 423.288 250.673, 416.425 250.549, 409 250.110 C 388.066 248.872, 358.899 251.544, 337.487 256.661 C 335.888 257.044, 334.553 255.741, 330.987 250.322 C 325.543 242.045, 311.576 227.864, 303.825 222.743 C 293.843 216.147, 279.812 209.305, 268.667 205.601 C 262.709 203.620, 256.998 202, 255.976 202 C 254.954 202, 253.849 201.565, 253.521 201.034 C 253.192 200.502, 257.645 193.189, 263.415 184.784 C 292.201 142.852, 298.006 133.860, 299.100 129.515 C 299.726 127.032, 300.377 125, 300.547 125 C 300.717 125, 305.051 126.145, 310.178 127.544 C 349.835 138.364, 354.028 139.379, 354.948 138.387 C 355.664 137.614, 367.718 111.739, 374.392 96.648 C 377.064 90.606, 376.903 89.942, 370.784 81.800 C 360.738 68.431, 349.142 55.338, 331.770 37.750 L 313.252 19 306.721 19 C 300.693 19, 299.859 18.724, 295.903 15.419 C 291.862 12.042, 291.243 11.849, 285.059 12.030 C 274.407 12.342, 273.672 12.180, 266.742 8 C 263.094 5.800, 259.522 4.052, 258.805 4.116 C 258.087 4.179, 251.681 6.786, 244.569 9.909 M 421.232 216 C 421.232 217.925, 421.438 218.713, 421.689 217.750 C 421.941 216.787, 421.941 215.213, 421.689 214.250 C 421.438 213.287, 421.232 214.075, 421.232 216 M 1.762 511.707 C 3.006 511.946, 4.806 511.937, 5.762 511.687 C 6.718 511.437, 5.700 511.241, 3.500 511.252 C 1.300 511.263, 0.518 511.468, 1.762 511.707 M 13.784 511.738 C 16.689 511.941, 21.189 511.939, 23.784 511.734 C 26.378 511.528, 24 511.363, 18.500 511.365 C 13 511.368, 10.878 511.536, 13.784 511.738 " stroke="none" fill="black" fill-rule="evenodd"/>
	<path fill-opacity="0.240" d="M 249.500 8.021 C 233.822 14.945, 231.667 16.251, 230.870 19.314 C 229.848 23.246, 228.569 24.538, 222.133 28.139 C 206.916 36.654, 200.653 42.074, 192.251 54 C 184.113 65.551, 172.501 90.663, 167.973 106.500 C 167.502 108.150, 166.196 112.138, 165.072 115.362 C 163.948 118.586, 161.886 127.085, 160.489 134.249 C 159.092 141.412, 157.709 147.662, 157.414 148.138 C 157.120 148.614, 155.555 155.191, 153.936 162.752 C 152.318 170.313, 150.302 179.425, 149.457 183 C 148.612 186.575, 147.087 193.325, 146.067 198 C 145.047 202.675, 143.502 209.736, 142.633 213.691 C 141.210 220.164, 141.205 221.247, 142.582 224.542 C 143.974 227.874, 143.927 229.946, 142.055 247.695 C 140.924 258.416, 140.204 267.521, 140.456 267.928 C 140.707 268.336, 141.380 275.242, 141.951 283.277 L 142.988 297.886 138.494 311.683 L 134 325.480 134.006 344.490 C 134.009 354.945, 134.489 365.221, 135.073 367.325 C 135.657 369.429, 139.255 375.690, 143.068 381.239 C 150.627 392.241, 151.061 393.933, 148.489 402.409 C 145.750 411.437, 146.306 413.848, 153.739 425.204 C 159.880 434.587, 160.523 436.067, 160.989 441.891 L 161.500 448.283 169 451.151 C 182.166 456.187, 183.255 456.952, 184.552 462.088 C 186.528 469.917, 191.912 478.691, 198.475 484.781 C 207.230 492.906, 216.801 497.389, 231.047 500.038 C 238.585 501.440, 263.404 501.378, 273.500 499.932 C 292.959 497.146, 318.491 488.541, 340 477.522 C 342.475 476.254, 351.475 471.630, 360 467.247 C 375.926 459.057, 399.905 448, 401.737 448 C 403.135 448, 408.258 442.090, 415.654 431.943 C 419.039 427.299, 425.227 419.056, 429.404 413.625 C 436.166 404.833, 437 403.275, 437 399.434 C 437 397.060, 436.550 394.840, 436 394.500 C 435.450 394.160, 434.998 394.471, 434.996 395.191 C 434.986 398.758, 414.588 411.818, 402.419 416.050 C 375.497 425.411, 328.984 424.942, 301.500 415.032 C 294.887 412.648, 282.692 409.544, 252.500 402.560 C 241.500 400.016, 230.250 397.323, 227.500 396.578 L 222.500 395.221 241.039 386.208 L 259.578 377.195 266.227 363.348 C 269.884 355.731, 276.355 342.300, 280.607 333.500 L 288.338 317.500 289.101 302 C 290.254 278.575, 292.038 249.853, 292.537 246.673 C 292.932 244.155, 291.096 241.871, 275.740 225.782 C 266.258 215.847, 257.005 205.984, 255.177 203.865 L 251.854 200.012 257.261 192.256 C 283.252 154.972, 296.837 134.322, 297.896 130.490 C 299.757 123.758, 300.080 123.542, 305.633 125.317 C 311.952 127.336, 352.270 138, 353.584 138 C 354.138 138, 357.920 130.688, 361.988 121.750 C 366.056 112.813, 370.873 102.289, 372.692 98.365 C 374.512 94.441, 376 90.928, 376 90.558 C 376 87.931, 355.947 63.121, 342.578 49.209 C 339.254 45.748, 336.184 42.293, 335.757 41.530 C 335.330 40.768, 329.777 35.386, 323.416 29.572 L 311.850 19 305.428 19 C 299.482 19, 298.716 18.738, 295.097 15.469 L 291.189 11.938 282.331 12.219 C 273.483 12.500, 273.467 12.496, 266.427 8.250 C 262.551 5.912, 259.182 4.010, 258.940 4.023 C 258.698 4.036, 254.450 5.835, 249.500 8.021 M 431.232 335 C 431.232 336.925, 431.438 337.712, 431.689 336.750 C 431.941 335.788, 431.941 334.212, 431.689 333.250 C 431.438 332.288, 431.232 333.075, 431.232 335 M 1.250 511.689 C 2.212 511.941, 3.788 511.941, 4.750 511.689 C 5.713 511.438, 4.925 511.232, 3 511.232 C 1.075 511.232, 0.288 511.438, 1.250 511.689 M 10.250 511.689 C 11.213 511.941, 12.787 511.941, 13.750 511.689 C 14.713 511.438, 13.925 511.232, 12 511.232 C 10.075 511.232, 9.287 511.438, 10.250 511.689 M 18.750 511.723 C 20.538 511.945, 23.462 511.945, 25.250 511.723 C 27.038 511.502, 25.575 511.320, 22 511.320 C 18.425 511.320, 16.962 511.502, 18.750 511.723 " stroke="none" fill="black" fill-rule="evenodd"/>
	<path fill-opacity="0.272" d="M 254 6.670 C 252.075 7.546, 246.492 9.939, 241.594 11.988 C 233.077 15.551, 232.618 15.904, 231.073 20.088 C 229.682 23.854, 228.486 25.024, 222.478 28.502 C 205.204 38.499, 200.588 42.492, 192.420 54.500 C 184.267 66.485, 176.787 82.415, 169.054 104.260 C 165.016 115.668, 163.965 119.631, 160.506 136.500 C 159.603 140.900, 158.236 146.525, 157.469 149 C 156.701 151.475, 155.356 157.550, 154.479 162.500 C 153.603 167.450, 152.287 173.525, 151.554 176 C 149.786 181.971, 146.606 195.890, 143.836 209.775 C 141.753 220.221, 141.699 221.361, 143.103 225.275 C 144.475 229.098, 144.447 230.973, 142.807 245 C 140.702 263.013, 140.531 269.456, 141.962 276.886 C 142.533 279.849, 143 286.003, 143 290.562 C 143 297.672, 142.360 300.814, 138.500 312.665 C 133.507 327.994, 133.248 331.174, 134.888 357 L 135.681 369.500 142.934 380 L 150.187 390.500 149.539 397 C 147.599 416.451, 147.471 414.488, 151.059 420.228 C 159.235 433.303, 160.376 435, 160.997 435 C 161.360 435, 165.861 431.175, 171 426.500 C 176.139 421.825, 180.757 418, 181.262 418 C 181.767 418, 183.827 416.864, 185.840 415.476 C 191.597 411.505, 216.287 397, 217.289 397 C 217.785 397, 219.386 396.196, 220.846 395.214 C 222.306 394.232, 230.925 389.879, 240 385.541 C 249.075 381.203, 257.138 377.169, 257.918 376.577 C 259.209 375.596, 264.078 365.855, 281.200 330 L 287.169 317.500 288.578 293 C 291.613 240.246, 291.573 244.544, 289.063 241.348 C 287.833 239.781, 282.962 234.450, 278.238 229.500 C 262.878 213.406, 254.535 204.542, 252.708 202.374 C 250.760 200.065, 250.727 200.123, 271.120 170.500 C 289.772 143.406, 295.774 134.050, 296.794 130.481 C 299.173 122.153, 297.393 122.181, 326.500 130.014 C 340.800 133.863, 352.965 136.836, 353.533 136.621 C 354.100 136.406, 356.203 132.465, 358.205 127.865 C 360.207 123.264, 363.624 115.675, 365.797 111 C 373.059 95.384, 375 90.948, 375 89.973 C 375 88.694, 368.528 79.540, 364.053 74.489 C 362.099 72.283, 359.150 68.705, 357.500 66.538 C 352.950 60.561, 324.874 31.060, 318.268 25.314 C 312.611 20.394, 312.243 20.239, 305.246 19.844 C 298.672 19.473, 297.742 19.142, 294.547 16.045 C 291.095 12.700, 290.919 12.652, 281.773 12.577 C 272.874 12.503, 272.252 12.349, 266.369 8.750 C 259.485 4.539, 258.901 4.441, 254 6.670 M 1.269 511.693 C 2.242 511.947, 3.592 511.930, 4.269 511.656 C 4.946 511.382, 4.150 511.175, 2.500 511.195 C 0.850 511.215, 0.296 511.439, 1.269 511.693 M 9.813 511.683 C 10.534 511.972, 11.397 511.936, 11.729 511.604 C 12.061 511.272, 11.471 511.036, 10.417 511.079 C 9.252 511.127, 9.015 511.364, 9.813 511.683 M 18.750 511.723 C 20.538 511.945, 23.462 511.945, 25.250 511.723 C 27.038 511.502, 25.575 511.320, 22 511.320 C 18.425 511.320, 16.962 511.502, 18.750 511.723 " stroke="none" fill="black" fill-rule="evenodd"/>
</svg>