<?xml version="1.0" encoding="utf-8"?>
<!-- Generator: Adobe Illustrator 19.1.0, SVG Export Plug-In . SVG Version: 6.00 Build 0)  -->
<!DOCTYPE svg PUBLIC "-//W3C//DTD SVG 1.1//EN" "http://www.w3.org/Graphics/SVG/1.1/DTD/svg11.dtd">
<svg version="1.1" xmlns="http://www.w3.org/2000/svg" xmlns:xlink="http://www.w3.org/1999/xlink" x="0px" y="0px" viewBox="0 0 160 160" enable-background="new 0 0 160 160" xml:space="preserve"><g id="illustrations"><polygon fill-rule="evenodd" clip-rule="evenodd" fill="#E0E4E9" points="91.922,39.268 121.025,39.268 121.527,29 114,29
		114,36.701 91.922,36.701"/><circle fill-rule="evenodd" clip-rule="evenodd" fill="#E0E4E9" cx="91.922" cy="19.94" r="2.416"/><circle fill-rule="evenodd" clip-rule="evenodd" fill="#E0E4E9" cx="120.318" cy="19.94" r="2.416"/><path fill="#E0E4E9" d="M129.945,10.618c-1.626-1.302-3.369-2.19-5.116-2.742C123.763,7.54,122.023,7,120.27,7S56.293,7,56.293,7
		c-11.675,0-21.136,9.464-21.136,21.14v35.094l-9.265,11.462l-0.077,0.104c-1.335,1.979-2.159,4.109-2.521,6.258l-0.107-0.044
		c-0.159,0.387-0.381,1.047-0.598,1.931c-0.915,3.722-0.859,7.722,0.847,11.518c0.96,2.137,2.41,4.08,4.392,5.778
		c9.216,7.898,26.288,3.976,35.978-8.05c1.371-1.701,2.832-3.551,4.371-5.532c0.553-0.711,1.114-1.438,1.684-2.179
		c3.287-4.274,6.716-8.852,10.085-13.43c1.072-1.456,2.062-2.812,2.963-4.05c0.927-0.334,1.753-0.875,2.422-1.572h5.575
		l-0.365,73.176l-0.743-0.893l-1.232-1.482l-1.134,1.559l-7.651,10.517c-0.487,0.67-0.339,1.608,0.331,2.095
		c0.67,0.487,1.608,0.339,2.095-0.331l6.517-8.959l7.512,9.035l1.281,1.541l1.117-1.664l5.303-7.898l4.223,6.386l1.192,1.803
		l1.272-1.748l6.438-8.85l6.438,8.85l1.013,1.392l1.24-1.194l4.502-4.332l4.434,3.657c0.639,0.527,1.584,0.436,2.112-0.203
		s0.436-1.584-0.203-2.112l-5.465-4.508l-1.031-0.851l-0.963,0.927l-4.225,4.065l-6.638-9.125l-1.213-1.667l-1.213,1.667
		l-2.273,3.125V65.429h22.167h1.5v-1.5v-2.631v-7.26c0-10.483,0-10.483,0-24.599C137.242,20.419,134.524,14.285,129.945,10.618z
		 M38.158,28.14c0-10.019,8.118-18.14,18.136-18.14c10.02,0,18.136,8.115,18.136,18.14v34.125h-3.17H38.158V28.14z M28.281,76.514
		l8.96-11.084h35.591L58.41,84.922c-7.784,9.446-18.893,13.284-25.666,9.488l-0.215-0.12C26.013,90.637,24.124,82.715,28.281,76.514
		z M77.528,69.274c-3.357,4.562-6.774,9.123-10.046,13.379c-0.567,0.737-1.125,1.46-1.675,2.167
		c-1.529,1.968-2.979,3.804-4.338,5.49c-8.724,10.827-23.915,14.317-31.69,7.654c-1.645-1.41-2.828-2.995-3.607-4.73
		c-0.183-0.406-0.339-0.817-0.477-1.231c1.322,1.943,3.113,3.64,5.368,4.904l0.215,0.12c8.229,4.612,20.834,0.257,29.497-10.259
		L76.408,65.64c0.744,0.706,1.659,1.231,2.677,1.51C78.586,67.832,78.074,68.531,77.528,69.274z M80.762,64.382
		c-1.841,0-3.333-1.492-3.333-3.332s1.492-3.332,3.333-3.332c1.841,0,3.333,1.492,3.333,3.332S82.603,64.382,80.762,64.382z
		 M97.259,146.688l-3.738-4.496l0.382-76.763h8.588v73.467L97.259,146.688z M109.469,145.055l-3.977-6.014V65.456h5.084v78.078
		L109.469,145.055z M134.242,54.038v7.26v1.131H86.94c0.099-0.445,0.155-0.905,0.155-1.38c0-3.497-2.836-6.332-6.333-6.332
		c-1.225,0-2.364,0.353-3.333,0.955V28.14c0-7.721-4.146-14.451-10.32-18.141c18.032-0.001,52.353-0.003,53.052-0.003
		c0.95,0,3.277,0.588,3.765,0.742c1.41,0.445,2.823,1.165,4.144,2.222c3.839,3.075,6.172,8.339,6.172,16.479
		C134.242,43.556,134.242,43.556,134.242,54.038z"/></g></svg>
