<?xml version="1.0" encoding="utf-8"?>
<!-- Generator: Adobe Illustrator 19.1.0, SVG Export Plug-In . SVG Version: 6.00 Build 0)  -->
<svg version="1.1" id="Layer_1" xmlns="http://www.w3.org/2000/svg" xmlns:xlink="http://www.w3.org/1999/xlink" x="0px" y="0px"
	 viewBox="-175 177 160 160" style="enable-background:new -175 177 160 160;" xml:space="preserve">
<style type="text/css">
	.st0{fill:#E0E4E9;}
</style>
<g>
	<g>
		<path class="st0" d="M-40.8,252c-4.9-2.4-14-2.5-14.4-2.5c-1.2,0-2.1,0.9-2.1,2.1c0,1.2,0.9,2.1,2.1,2.1c2.4,0,9.2,0.4,12.5,2
			c0.3,0.2,0.6,0.2,0.9,0.2c0.8,0,1.5-0.4,1.9-1.2C-39.4,253.8-39.8,252.5-40.8,252z"/>
	</g>
</g>
<g>
	<g>
		<path class="st0" d="M-30.4,281.8l-8.6-2.5c-0.4-0.1-0.6-0.5-0.6-0.8v-2.9c0.7-0.5,1.4-1,2-1.6c3-2.9,4.7-6.9,4.7-11.1v-4l0.8-1.7
			c0.9-1.8,1.4-3.9,1.4-5.9v-10.8c0-1.2-0.9-2.1-2.1-2.1h-20.1c-7.3,0-13.3,6-13.3,13.3v0.1c0,1.7,0.4,3.4,1.2,4.9l1.1,2.1v3.4
			c0,5.4,2.7,10.3,6.7,13.2l0,3c0,0.5,0,0.7-1.7,1.2l-4.2,1.2l-12.2-4.4c0-0.6-0.2-1.2-0.6-1.6l-3.9-4.1v-6.9
			c0.4-0.3,0.8-0.7,1.2-1.1c4.9-4.6,7.7-11.1,7.7-17.8v-5.5c1.5-3.2,2.2-6.6,2.2-10.2v-22.4c0-1.2-0.9-2.1-2.1-2.1h-31.3
			c-11,0-20,9-20,20v4.5c0,3.5,0.8,6.9,2.2,10.2v4.7c0,7.8,3.5,14.9,8.9,19.5v7l-3.9,4.1c-0.4,0.4-0.6,1-0.6,1.6l-12.9,4.7
			c-0.9,0.3-1.8,0.8-2.6,1.4l-2-1c6-2.6,7.9-6.3,8-6.5c0.3-0.6,0.3-1.3,0-1.9c-1.5-3-1.7-8.5-1.8-13c0-1.5-0.1-2.9-0.2-4.1
			c-0.7-10-8.3-17.6-17.7-17.6c-9.4,0-17,7.6-17.7,17.6c-0.1,1.2-0.1,2.6-0.2,4.1c-0.1,4.4-0.3,10-1.8,13c-0.3,0.6-0.3,1.3,0,1.9
			c0.1,0.2,2,3.9,8,6.5l-5.6,2.8c-3,1.5-4.9,4.5-4.9,7.9v15.5c0,1.2,0.9,2.1,2.1,2.1s2.1-0.9,2.1-2.1v-15.5c0-1.8,1-3.3,2.6-4.1
			l7-3.5l2.4,2.3c1.7,1.6,3.9,2.4,6.1,2.4c2.2,0,4.4-0.8,6.1-2.4l2.4-2.3l2.3,1.1c-1.1,1.7-1.7,3.7-1.7,5.8v16.1
			c0,1.2,0.9,2.1,2.1,2.1c1.2,0,2.1-0.9,2.1-2.1v-16.1c0-2.9,1.8-5.5,4.5-6.4l13.6-4.9l5.6,8.5c0.7,1.1,1.9,1.8,3.2,1.9
			c0.1,0,0.3,0,0.4,0c1.1,0,2.2-0.4,3.1-1.3l3.4-3.4v21.8c0,1.2,0.9,2.1,2.1,2.1s2.1-0.9,2.1-2.1v-21.8l3.4,3.4
			c0.8,0.8,1.9,1.3,3.1,1.3c0.1,0,0.3,0,0.4,0c1.3-0.1,2.5-0.8,3.2-1.9l5.6-8.5L-64,285c2.7,1,4.5,3.6,4.5,6.4v16.1
			c0,1.2,0.9,2.1,2.1,2.1c1.2,0,2.1-0.9,2.1-2.1v-16.1c0-2.9-1.2-5.6-3.1-7.7l0.5-0.1c0.5-0.1,1.2-0.4,1.9-0.7l5.3,5.3v19.3
			c0,1.2,0.9,2.1,2.1,2.1s2.1-0.9,2.1-2.1v-19.3l5.3-5.3c0.3,0.1,0.6,0.3,0.9,0.4l8.6,2.5c2,0.6,3.3,2.4,3.3,4.4v17.3
			c0,1.2,0.9,2.1,2.1,2.1c1.2,0,2.1-0.9,2.1-2.1v-17.3C-24,286.3-26.6,282.8-30.4,281.8z M-153.4,278.1c-3.9-1.4-5.9-3.3-6.7-4.3
			c0.6-1.5,0.9-3.2,1.2-5c1.2,2.8,3.1,5.1,5.5,6.8V278.1z M-141.4,283.7c-1.8,1.7-4.6,1.7-6.4,0l-1.9-1.8c0.3-0.6,0.5-1.3,0.5-2
			v-2.2c1.5,0.5,3,0.7,4.6,0.7c1.6,0,3.2-0.2,4.6-0.7l0,2.2c0,0.7,0.2,1.4,0.5,2L-141.4,283.7z M-144.6,274.1
			c-6.2,0-11.3-5.1-11.3-11.3c0-1.2-0.9-2.1-2.1-2.1c-0.1,0-0.2,0-0.3,0c0-0.2,0-0.4,0-0.5c0-1.4,0.1-2.8,0.2-4
			c0.3-3.8,1.8-7.2,4.2-9.8c2.5-2.6,5.8-4,9.3-4c3.5,0,6.9,1.4,9.3,4c2.5,2.5,4,6,4.2,9.8c0.1,1.2,0.1,2.5,0.2,4c0,0.1,0,0.2,0,0.4
			c-2.3-3.5-5.8-6.1-10.3-7.5c-4.2-1.3-7.8-1.3-8-1.3c-0.5,0-1.1,0.2-1.4,0.6l-3.8,3.9c-0.8,0.8-0.8,2.2,0.1,3
			c0.8,0.8,2.2,0.8,3-0.1l3.1-3.3c2.7,0.1,11.4,1.1,14.8,8.6C-134.2,270.1-139,274.1-144.6,274.1z M-135.8,278.1l0-2.5
			c2.4-1.7,4.4-4,5.5-6.8c0.3,1.8,0.6,3.5,1.2,5C-129.9,274.8-131.9,276.7-135.8,278.1z M-115.6,244.2V239c0-0.3-0.1-0.6-0.2-0.9
			c-1.3-2.8-2-5.7-2-8.8v-4.5c0-8.7,7.1-15.8,15.8-15.8h29.2v20.3c0,3-0.7,6-2,8.8c-0.1,0.3-0.2,0.6-0.2,0.9v6
			c0,5.7-2.3,10.9-6.4,14.8c-0.5,0.5-1.1,0.9-1.6,1.4c0,0,0,0,0,0c-3.9,2.9-8.6,4.4-13.6,4C-107.3,264.5-115.6,255.2-115.6,244.2z
			 M-103.9,286.2c0,0,0,0-0.1,0c-0.1,0-0.1,0-0.1-0.1l-6.5-9.8l2.1-2.2l9.9,6.7L-103.9,286.2z M-95.4,278.2l-11.3-7.7v-3.9
			c2.9,1.6,6.2,2.6,9.7,2.8c0.6,0,1.1,0.1,1.6,0.1c4,0,7.8-1,11.3-2.8v3.8L-95.4,278.2z M-86.7,286.2c0,0,0,0.1-0.1,0.1
			c-0.1,0-0.1,0-0.1,0l-5.2-5.2l9.9-6.7l2.1,2.2L-86.7,286.2z M-48.5,284.5l-4.7-4.7c0.1-0.4,0.1-0.8,0.1-1.2l0-0.9
			c1.3,0.4,2.7,0.7,4.1,0.7c0.2,0,0.3,0,0.5,0c1.6,0,3.1-0.2,4.6-0.7v0.8c0,0.4,0.1,0.8,0.2,1.2L-48.5,284.5z M-40.6,270.9
			c-2.2,2.2-5.1,3.3-8.2,3.2c-6.1-0.2-11-5.5-11-11.9v-3.9c0-0.3-0.1-0.6-0.2-0.9l-1.3-2.6c-0.5-0.9-0.7-2-0.7-3.1v-0.1
			c0-5,4.1-9.1,9.1-9.1h18v8.7c0,1.4-0.3,2.8-1,4.1l-1.1,2.1c-0.1,0.3-0.2,0.6-0.2,0.9v4.5C-37.1,265.9-38.4,268.8-40.6,270.9z"/>
	</g>
</g>
<g>
	<g>
		<path class="st0" d="M-35,292c-1.2,0-2.1,0.9-2.1,2.1v13.4c0,1.2,0.9,2.1,2.1,2.1s2.1-0.9,2.1-2.1v-13.4
			C-32.9,293-33.9,292-35,292z"/>
	</g>
</g>
<g>
	<g>
		<path class="st0" d="M-155.8,294.8c-1.2,0-2.1,0.9-2.1,2.1v10.7c0,1.2,0.9,2.1,2.1,2.1s2.1-0.9,2.1-2.1v-10.7
			C-153.7,295.7-154.6,294.8-155.8,294.8z"/>
	</g>
</g>
<g>
	<g>
		<path class="st0" d="M-78.2,230c-7.9-7.9-24.5-6.4-31.2-5.4c-2.1,0.3-3.7,2.1-3.7,4.3v4.8c0,1.2,0.9,2.1,2.1,2.1
			c1.2,0,2.1-0.9,2.1-2.1v-4.8c0-0.1,0-0.1,0.1-0.1c2.7-0.4,8-1,13.6-0.7c6.5,0.4,11.2,2.1,14,4.9c0.8,0.8,2.1,0.8,3,0
			C-77.4,232.2-77.4,230.8-78.2,230z"/>
	</g>
</g>
<g>
	<g>
		<path class="st0" d="M-120,296.5c-1.2,0-2.1,0.9-2.1,2.1v8.9c0,1.2,0.9,2.1,2.1,2.1c1.2,0,2.1-0.9,2.1-2.1v-8.9
			C-117.9,297.4-118.8,296.5-120,296.5z"/>
	</g>
</g>
<g>
	<g>
		<path class="st0" d="M-70.8,296.5c-1.2,0-2.1,0.9-2.1,2.1v8.9c0,1.2,0.9,2.1,2.1,2.1c1.2,0,2.1-0.9,2.1-2.1v-8.9
			C-68.7,297.4-69.6,296.5-70.8,296.5z"/>
	</g>
</g>
</svg>
